<?xml version="1.0" encoding="UTF-8" standalone="no"?><svg xmlns="http://www.w3.org/2000/svg" xmlns:xlink="http://www.w3.org/1999/xlink" contentScriptType="text/ecmascript" fill="#ffffff" width="862.2" zoomAndPan="magnify" contentStyleType="text/css" viewBox="-0.6 -1.2 862.2 153.0" height="153" data-name="Слой 2" preserveAspectRatio="xMidYMid meet" version="1"><g data-name="Слой 1"><g id="change1_1"><path d="m850.2,151.73c-2.77,0-5.53-1.11-7.56-3.3l-13.24-14.32c-2.85-3.08-5.87-6.15-8.99-9.12-4.11-3.93-4.26-10.44-.34-14.56,3.93-4.12,10.45-4.27,14.56-.34,3.42,3.26,6.74,6.64,9.88,10.03l13.24,14.32c3.86,4.17,3.61,10.69-.57,14.55-1.98,1.83-4.49,2.74-6.99,2.74Zm-72.09-60.76c-1.78,0-3.59-.46-5.23-1.43-8.9-5.26-18.41-10.28-28.27-14.91-5.15-2.42-7.36-8.55-4.94-13.7,2.41-5.14,8.53-7.37,13.7-4.94,10.44,4.91,20.53,10.23,29.99,15.82,4.89,2.89,6.52,9.21,3.62,14.1-1.92,3.25-5.35,5.06-8.87,5.06ZM93.93,71.7c-5.25,0-9.73-3.99-10.24-9.33-.54-5.66,3.62-10.68,9.28-11.22l32.8-3.11c5.68-.53,10.69,3.62,11.23,9.28.53,5.66-3.62,10.68-9.28,11.22l-32.8,3.11c-.33.03-.66.05-.99.05Zm94.31-8.95c-5.25,0-9.73-3.99-10.24-9.32-.54-5.66,3.62-10.69,9.28-11.22l32.8-3.11c5.67-.53,10.69,3.62,11.23,9.28.54,5.66-3.62,10.69-9.28,11.22l-32.8,3.11c-.33.03-.66.05-.99.05Zm94.31-8.95c-5.25,0-9.73-3.99-10.24-9.32-.54-5.66,3.62-10.69,9.28-11.22l32.77-3.17c5.64-.52,10.69,3.59,11.25,9.25.55,5.66-3.59,10.69-9.25,11.25l-32.82,3.18c-.33.03-.66.05-.99.05Zm408.75-.13c-.98,0-1.98-.14-2.97-.44-10.12-3.04-20.61-5.81-31.18-8.23-5.54-1.26-9.01-6.79-7.75-12.33,1.26-5.54,6.76-9.02,12.33-7.75,11.02,2.52,21.97,5.41,32.53,8.58,5.45,1.64,8.53,7.38,6.89,12.83-1.34,4.45-5.43,7.33-9.85,7.33Zm-314.47-9.03c-5.24,0-9.72-3.98-10.24-9.3-.55-5.66,3.59-10.69,9.25-11.25l32.79-3.19c5.65-.53,10.69,3.59,11.25,9.25.55,5.66-3.59,10.69-9.25,11.25l-32.79,3.19c-.34.03-.68.05-1.01.05Zm94.28-9.18c-5.24,0-9.72-3.98-10.24-9.3-.55-5.66,3.59-10.69,9.25-11.25l10.63-1.04c7.47-.73,15.07-1.32,22.6-1.75,5.79-.34,10.55,4.01,10.88,9.69.33,5.68-4.01,10.54-9.69,10.87-7.26.42-14.6.99-21.8,1.69l-10.63,1.04c-.34.03-.68.05-1.01.05Zm127.45-.37c-.37,0-.75-.02-1.13-.06-10.63-1.16-21.48-2.02-32.25-2.56-5.68-.29-10.05-5.12-9.77-10.8.29-5.68,5.01-10.13,10.8-9.76,11.17.56,22.42,1.46,33.44,2.66,5.65.62,9.74,5.7,9.12,11.35-.57,5.27-5.04,9.18-10.22,9.18Z"/><path d="m53.31,71.41l59.52,43.79c2.31,1.7.38,5.31-2.32,4.33L1.63,79.89c-1.79-.65-2.21-3-.75-4.23L90.35.6c2.18-1.83,5.22.85,3.68,3.24l-41.34,64.22c-.71,1.1-.44,2.57.62,3.34Z"/></g></g></svg>